<svg width="24" height="25" viewBox="0 0 24 25" fill="none" xmlns="http://www.w3.org/2000/svg">
<g clip-path="url(#clip0_1_14864)">
<path d="M12 1.26147C14.8593 1.26147 17.6092 2.32598 19.7188 4.23608L20.1318 4.62964C22.2885 6.78631 23.5 9.71148 23.5 12.7615C23.5 15.6208 22.4355 18.3707 20.5254 20.4802L20.1318 20.8933C17.9752 23.05 15.05 24.2615 12 24.2615C9.14067 24.2615 6.39081 23.197 4.28125 21.2869L3.86816 20.8933C1.7115 18.7366 0.5 15.8115 0.5 12.7615C0.5 9.71148 1.7115 6.78631 3.86816 4.62964C5.89003 2.60777 8.58733 1.41616 11.4297 1.27515L12 1.26147ZM12.75 7.0105C12.5857 7.0105 12.4233 7.04334 12.2715 7.1062C12.1197 7.16907 11.9814 7.26055 11.8652 7.37671C11.7781 7.46386 11.7044 7.56332 11.6465 7.67163L11.5947 7.78296C11.5319 7.93473 11.499 8.0972 11.499 8.26147C11.499 8.38476 11.5171 8.50721 11.5527 8.62476L11.5947 8.73999C11.6419 8.85399 11.7052 8.96041 11.7832 9.05542L11.8652 9.14624L14.2314 11.5115H6.75C6.45995 11.5115 6.18043 11.6125 5.95801 11.7947L5.86621 11.8777C5.63179 12.1121 5.5 12.43 5.5 12.7615C5.5 13.0515 5.60098 13.331 5.7832 13.5535L5.86621 13.6453C6.10063 13.8797 6.41848 14.0115 6.75 14.0115H14.2314L11.8652 16.3767C11.7781 16.4639 11.7044 16.5633 11.6465 16.6716L11.5947 16.783C11.5319 16.9347 11.499 17.0972 11.499 17.2615C11.499 17.3848 11.5171 17.5072 11.5527 17.6248L11.5947 17.74C11.6576 17.8918 11.7491 18.0301 11.8652 18.1462C11.9814 18.2624 12.1197 18.3539 12.2715 18.4167C12.3852 18.4639 12.5049 18.4945 12.627 18.5066L12.75 18.5125C12.9143 18.5125 13.0768 18.4796 13.2285 18.4167C13.3425 18.3695 13.4489 18.3063 13.5439 18.2283L13.6348 18.1462L18.1348 13.6462L18.1338 13.6453C18.2499 13.5293 18.3433 13.3925 18.4062 13.241C18.4693 13.0891 18.501 12.9259 18.501 12.7615C18.501 12.5971 18.4693 12.4338 18.4062 12.282C18.3432 12.1302 18.2501 11.9928 18.1338 11.8767H18.1348L13.6348 7.37671C13.5186 7.26055 13.3803 7.16907 13.2285 7.1062C13.0767 7.04334 12.9143 7.0105 12.75 7.0105Z" fill="#E0B138" stroke="#E0B138"/>
</g>
<defs>
<clipPath id="clip0_1_14864">
<rect width="24" height="24" fill="white" transform="translate(0 0.761475)"/>
</clipPath>
</defs>
</svg>
