<svg width="24" height="24" viewBox="0 0 24 24" fill="none" xmlns="http://www.w3.org/2000/svg">
<path d="M12 0.5C14.8593 0.5 17.6092 1.5645 19.7188 3.47461L20.1318 3.86816C22.2885 6.02483 23.5 8.95001 23.5 12C23.5 14.8593 22.4355 17.6092 20.5254 19.7188L20.1318 20.1318C17.9752 22.2885 15.05 23.5 12 23.5C9.14067 23.5 6.39081 22.4355 4.28125 20.5254L3.86816 20.1318C1.7115 17.9752 0.5 15.05 0.5 12C0.5 8.95001 1.7115 6.02483 3.86816 3.86816C6.02483 1.7115 8.95001 0.5 12 0.5ZM9.78711 7C9.49709 7.00009 9.21748 7.10095 8.99512 7.2832L8.90332 7.36621C8.66902 7.60061 8.53711 7.91857 8.53711 8.25C8.53711 8.58143 8.66902 8.89939 8.90332 9.13379C9.13765 9.36812 9.45573 9.4999 9.78711 9.5H12.7324L7.44824 14.7842C7.3588 14.8706 7.28264 14.9697 7.22266 15.0781L7.16797 15.1904C7.11889 15.3048 7.08758 15.4256 7.07422 15.5488L7.06641 15.6729C7.06535 15.7973 7.08279 15.9212 7.11816 16.04L7.15918 16.1572C7.22203 16.3108 7.31531 16.4501 7.43262 16.5674C7.52062 16.6554 7.62093 16.73 7.73047 16.7881L7.84277 16.8408C7.95794 16.8879 8.07967 16.9175 8.20312 16.9287L8.32715 16.9336C8.45161 16.9325 8.57513 16.9124 8.69336 16.875L8.80957 16.832C8.9596 16.7676 9.0958 16.6743 9.20996 16.5576L14.5 11.2676V14.2129C14.5001 14.5029 14.6009 14.7825 14.7832 15.0049L14.8662 15.0967C15.1006 15.331 15.4186 15.4629 15.75 15.4629C16.04 15.4629 16.3196 15.3618 16.542 15.1797L16.6338 15.0967C16.8681 14.8624 16.9999 14.5443 17 14.2129V8.25C17 7.95995 16.899 7.68043 16.7168 7.45801L16.6338 7.36621C16.3994 7.13179 16.0815 7 15.75 7H9.78711Z" fill="#2E343E" stroke="#2E343E"/>
</svg>
