<svg width="24" height="25" viewBox="0 0 24 25" fill="none" xmlns="http://www.w3.org/2000/svg">
<path d="M8.14286 3.97852H15.8571V2.10352C15.8571 1.48242 16.4304 0.978516 17.1429 0.978516C17.8554 0.978516 18.4286 1.48242 18.4286 2.10352V3.97852H20.5714C22.4625 3.97852 24 5.32148 24 6.97852V21.9785C24 23.6332 22.4625 24.9785 20.5714 24.9785H3.42857C1.53482 24.9785 0 23.6332 0 21.9785V6.97852C0 5.32148 1.53482 3.97852 3.42857 3.97852H5.57143V2.10352C5.57143 1.48242 6.14464 0.978516 6.85714 0.978516C7.56964 0.978516 8.14286 1.48242 8.14286 2.10352V3.97852ZM2.57143 21.9785C2.57143 22.391 2.955 22.7285 3.42857 22.7285H20.5714C21.0429 22.7285 21.4286 22.391 21.4286 21.9785V9.97852H2.57143V21.9785Z" fill="#E0B138"/>
</svg>
