<svg width="24" height="25" viewBox="0 0 24 25" fill="none" xmlns="http://www.w3.org/2000/svg">
<path d="M21 9.97852C21 16.4495 12 24.9785 12 24.9785C12 24.9785 3 16.4495 3 9.97852C3 7.59157 3.94821 5.30238 5.63604 3.61455C7.32387 1.92673 9.61305 0.978516 12 0.978516C14.3869 0.978516 16.6761 1.92673 18.364 3.61455C20.0518 5.30238 21 7.59157 21 9.97852Z" fill="#8696AA"/>
<path d="M17 9.97852C17 12.7402 14.7617 14.9785 12 14.9785C9.23828 14.9785 7 12.7402 7 9.97852C7 7.2168 9.23828 4.97852 12 4.97852C14.7617 4.97852 17 7.2168 17 9.97852Z" fill="white"/>
</svg>
