<svg width="11" height="18" viewBox="0 0 11 18" fill="none" xmlns="http://www.w3.org/2000/svg">
<path d="M1.37744 0.0410156C1.46787 0.0410156 1.55759 0.0590911 1.64111 0.09375C1.72462 0.128408 1.80089 0.17915 1.86475 0.243164L10.1147 8.49316C10.1786 8.55691 10.2295 8.63251 10.2642 8.71582C10.2988 8.79927 10.3159 8.88914 10.3159 8.97949C10.3159 9.06987 10.2988 9.15968 10.2642 9.24316C10.2295 9.32669 10.1788 9.40293 10.1147 9.4668L1.86475 17.7168C1.73565 17.8459 1.56001 17.918 1.37744 17.918C1.19508 17.9179 1.02013 17.8457 0.891113 17.7168C0.762019 17.5877 0.688965 17.4121 0.688965 17.2295C0.689027 17.047 0.762074 16.8722 0.891113 16.7432L8.65576 8.97949L0.891113 1.2168C0.827099 1.15294 0.776358 1.07667 0.741699 0.993164C0.70704 0.909639 0.688965 0.819922 0.688965 0.729492C0.688996 0.639142 0.70707 0.549273 0.741699 0.46582C0.776354 0.382469 0.827201 0.306915 0.891113 0.243164C0.954864 0.179252 1.03042 0.128405 1.11377 0.09375C1.19722 0.059121 1.28709 0.0410464 1.37744 0.0410156Z" fill="#2E343E"/>
</svg>
