<svg width="11" height="18" viewBox="0 0 11 18" fill="none" xmlns="http://www.w3.org/2000/svg">
<path d="M9.62744 0.0410156C9.71787 0.0410156 9.80759 0.0590911 9.89111 0.09375C9.97462 0.128408 10.0509 0.17915 10.1147 0.243164C10.1786 0.306908 10.2295 0.382509 10.2642 0.46582C10.2988 0.549273 10.3159 0.639142 10.3159 0.729492C10.3159 0.819871 10.2988 0.90968 10.2642 0.993164C10.2295 1.07669 10.1788 1.15293 10.1147 1.2168L2.3501 8.97949L10.1147 16.7432C10.2436 16.8722 10.3159 17.0471 10.3159 17.2295C10.3159 17.4121 10.2438 17.5877 10.1147 17.7168C9.98565 17.8459 9.81001 17.918 9.62744 17.918C9.44508 17.9179 9.27013 17.8457 9.14111 17.7168L0.891113 9.4668C0.827099 9.40294 0.776358 9.32667 0.741699 9.24316C0.70704 9.15964 0.688965 9.06992 0.688965 8.97949C0.688996 8.88914 0.70707 8.79927 0.741699 8.71582C0.776354 8.63247 0.827201 8.55691 0.891113 8.49316L9.14111 0.243164C9.20486 0.179252 9.28042 0.128405 9.36377 0.09375C9.44722 0.059121 9.53709 0.0410463 9.62744 0.0410156Z" fill="#2E343E"/>
</svg>
